# xmcd CD database file
#
# Track frame offsets:
#	150
#	15402
#	36690
#	54427
#	69652
#	90105
#	107450
#	119097
#	133842
#	151525
#	168500
#
# Disc length: 2546 seconds
#
# Revision: 5
# Processed by: cddbd v1.5.2PL0 Copyright (c) Steve Scherf et al.
# Submitted via: CDex 1.51
#
DISCID=8809f00b
DTITLE=Chris Thomas King - Me, My Guitar and the Blues
DYEAR=1999
DGENRE=Blues
TTITLE0=Why Blues
TTITLE1=Like Father, Like Son
TTITLE2=Superstitious Blues
TTITLE3=Cain
TTITLE4=Stay Just As You Are
TTITLE5=Born Under A Bad Sign
TTITLE6=Gambling Woman
TTITLE7=Me, My Guitar And The Blues
TTITLE8=Bourbon Street Blues
TTITLE9=Stones In My Passway
TTITLE10=Your Are My Heaven
EXTD=YEAR: 1999
EXTT0=
EXTT1=
EXTT2=
EXTT3=
EXTT4=
EXTT5=
EXTT6=
EXTT7=
EXTT8=
EXTT9=
EXTT10=
PLAYORDER=
